<?xml version="1.0" encoding="utf-8"?>
<!-- Generator: Adobe Illustrator 27.5.0, SVG Export Plug-In . SVG Version: 6.00 Build 0)  -->
<svg version="1.1" id="Layer_1" xmlns="http://www.w3.org/2000/svg" xmlns:xlink="http://www.w3.org/1999/xlink" x="0px" y="0px"
	 viewBox="0 0 1920 1080" style="enable-background:new 0 0 1920 1080;" xml:space="preserve">
<g>
	<defs>
		<rect id="SVGID_1_" width="1920" height="1080"/>
	</defs>
	<clipPath id="SVGID_00000083065135902840839070000011875296506664990645_">
		<use xlink:href="#SVGID_1_"  style="overflow:visible;"/>
	</clipPath>
	
		<rect style="clip-path:url(#SVGID_00000083065135902840839070000011875296506664990645_);fill-rule:evenodd;clip-rule:evenodd;fill:#83C993;" width="1920" height="1080"/>
	<g style="clip-path:url(#SVGID_00000083065135902840839070000011875296506664990645_);">
		<path style="fill:#F9F2E5;" d="M3.48,649.504c-1.619-4.612-3.337-12.406-7.949-13.911c0,22.741,0,45.488,0,68.228
			c0.11,0,0.221,0,0.331,0C8.391,694.394,9.291,666.063,3.48,649.504z"/>
		<path style="fill:#F9F2E5;" d="M1327.306,1064.172c-14.954-14.937-37.169-26.386-67.234-25.834
			c-6.633,2.601-14.979,1.698-21.197,3.643c-18.806,5.885-35.902,19.915-42.394,38.089c0,0.11,0,0.221,0,0.331
			c4.968,0,9.937,0,14.904,0c1.165-5.244,6.273-9.262,9.605-12.586c21.886-21.836,62.708-18.894,87.107-1.656
			c4.682,3.308,13.151,8.362,14.904,14.242c5.74,0,11.482,0,17.223,0C1339.189,1074.13,1331.262,1068.124,1327.306,1064.172z"/>
		<path style="fill:#F9F2E5;" d="M76.676,68.57c5.595,9.538,12.615,26.12,9.605,43.057c-3.099,17.437-15.989,29.97-13.911,52.33
			c2.283,1.523,11.789,3.353,15.235,1.325c1.47-1.129,8.166-28.613,9.936-32.789c20.502-48.368-16.044-99.771-53.655-111.947
			c-14.553-4.711-31.102-3.588-48.356-3.312c0,3.974,0,7.949,0,11.923C37.057,24.994,61.704,43.048,76.676,68.57z"/>
		<path style="fill:#F9F2E5;" d="M432.391,971.104c-4.195,0.993-8.391,1.987-12.586,2.981
			c-17.663,7.158-33.109,21.264-39.082,40.076c-7.162,22.556,4.682,39.815,17.885,47.694c2.956,1.764,10.95,6.473,15.235,4.968
			c0.221,0,0.442,0,0.662,0c-1.35-3.966-9.106-6.783-12.255-9.274c-3.727-2.948-7.184-8.056-9.605-12.255
			c-14.849-25.756,14.697-54.299,33.12-59.948c34.908-10.703,46.391,37.968,15.898,46.037c-0.442,0.552-0.883,1.104-1.325,1.656
			c0.11,0.221,0.221,0.442,0.331,0.662c19.861,3.254,35.311-19.028,28.815-39.745C464.778,978.944,452.697,970.727,432.391,971.104z
			"/>
		<path style="fill:#F9F2E5;" d="M499.625,921.423c0-0.11,0-0.221,0-0.331c-0.883-0.552-1.767-1.104-2.65-1.656
			C497.253,920.295,497.841,921.083,499.625,921.423z"/>
		<path style="fill:#F9F2E5;" d="M218.432,1056.886c-2.76,0.331-5.52,0.662-8.28,0.994c-11.34,3.061-17.935,9.51-19.541,22.522
			c24.507,0,49.021,0,73.527,0c4.137,0.001,22.368,0.844,23.184-1.325C267.107,1069.299,248.67,1056.277,218.432,1056.886z"/>
		<path style="fill:#F9F2E5;" d="M31.633,126.2c-4.784,11.519-18.421,20.259-31.133,23.847c-0.221,0.331-0.442,0.662-0.662,0.994
			c0.11,0.221,0.221,0.442,0.331,0.662c26.89,5.114,56.405-24.433,45.044-51.006C38.291,84.51,18.308,81.77-4.469,82.15
			c0,4.747,0,9.495,0,14.242C18.756,94.561,42.182,100.802,31.633,126.2z"/>
		<path style="fill:#F9F2E5;" d="M1836.037,71.551c-0.734-1.348-16.56-24.509-16.56-24.509
			C1821.077,53.078,1830.705,70.096,1836.037,71.551z"/>
		<path style="fill:#F9F2E5;" d="M1819.808,45.717c0-0.11,0-0.221,0-0.331c-0.442-0.331-0.883-0.662-1.325-0.994
			C1818.997,45.778,1818.416,45.208,1819.808,45.717z"/>
		<path style="fill:#F9F2E5;" d="M1498.539,88.774c-4.464,10.932-8.687,28.376-5.299,43.719
			c4.724,21.397,19.805,35.553,38.751,42.725c32.786,12.412,64.156-8.167,70.547-33.452c6.427-25.427-10.016-43.798-28.484-47.362
			c-20.239-3.906-41.575,13.544-29.146,29.808c0.662,0,1.325,0,1.987,0c-0.333-14.216,15.471-21.772,28.815-16.229
			c13.927,5.785,17.524,28.6,8.28,42.394c-7.564,11.287-29.97,18.919-47.693,11.592c-15.686-6.484-25.919-19.347-29.146-38.42
			c-1.858-10.98,1.556-21.746,4.306-28.815c12.659-32.534,44.579-50.997,86.776-38.089c30.622,9.367,47.833,30.523,55.311,63.26
			c3.739,16.366,1.668,34.075-2.318,48.687c-8.244,30.219-23.154,52.987-49.681,64.585c-48.17,21.06-109.23-2.58-134.138-35.108
			c-0.442,0-0.883,0-1.325,0c1.757,7.743,14.43,19.205,20.204,23.847c26.944,21.661,65.768,39.773,110.954,25.834
			c43.136-13.307,84.123-70.156,69.553-132.813c-8.692-37.38-30.701-61.414-66.241-71.872
			C1551.646,28.678,1512.532,54.504,1498.539,88.774z"/>
		<path style="fill:#F9F2E5;" d="M911.313,46.711c23.802,5.022,47.595-10.668,42.725-35.77c-1.325-3.864-2.65-7.729-3.974-11.592
			c-4.747,0-9.495,0-14.242,0c0,0.11,0,0.221,0,0.331c2.381,4.56,5.465,8.419,6.624,14.242
			c3.929,19.737-18.311,23.991-34.445,19.872c-18.678-4.768-45.498-17.523-51.337-34.445c-5.299,0-10.599,0-15.898,0
			C843.905,22.462,887.394,41.664,911.313,46.711z"/>
		<path style="fill:#F9F2E5;" d="M740.08,82.812c-0.819-7.284-10.142-13.841-13.911-19.21
			c-10.517-14.985-30.684-41.582-31.796-64.254c-7.175,0-14.353,0-21.528,0c-0.081,14.84-0.016,28.614,3.643,40.407
			C684.299,64.928,706.75,83.163,740.08,82.812z"/>
		<path style="fill:#F9F2E5;" d="M836.792,71.551c0.11-0.221,0.221-0.442,0.331-0.662c-7.175-3.532-14.353-7.066-21.528-10.599
			c-18.439-11.469-32.357-29.796-30.14-60.942c-8.942,0-17.886,0-26.828,0c1.579,8.973,1.316,17.834,4.306,25.172
			C772.968,49.152,801.295,71.946,836.792,71.551z"/>
		<path style="fill:#F9F2E5;" d="M871.237,245.103c-32.571,9.964-66.236-12.918-73.859-34.445
			c-2.425,1.366,0.337,9.164,1.325,11.923c3.509,9.802,9.683,18.996,17.223,24.84c25.156,19.498,63.257,13.278,85.782-3.974
			c21.318-16.328,38.563-53.02,23.516-88.101c-11.481-26.768-34.638-47.59-71.871-48.687c-5.789,2.238-14.21,1.548-19.872,3.312
			c-17.127,5.337-30.917,19.024-37.426,35.108c-15.317,37.846,21.15,80.665,59.617,70.878c26.087-6.638,44.706-42.469,17.554-61.604
			c-12.025-8.474-31.486-6.418-37.757,5.962c-3.431,6.773-1.407,17.681,5.962,18.547c0.11,0,0.221,0,0.331,0
			c1.221-2.824-0.21-6.905,0.662-9.936c1.841-6.397,12.38-9.944,20.535-6.624c14.903,6.067,12.496,29.659,0.994,37.426
			c-27.537,18.594-67.201-13.483-58.292-46.369c7.047-26.014,38.9-42.343,71.54-29.477c20.938,8.253,35.282,26.636,40.076,51.006
			c2.12,10.777-0.684,22.939-3.312,30.471C906.791,225.913,892.337,238.647,871.237,245.103z"/>
		<path style="fill:#F9F2E5;" d="M619.521,432.233c-10.657,24.35-40.731,40.099-75.515,31.133
			c-10.458-2.695-19.94-6.569-28.152-11.592c-3.312-2.318-6.624-4.637-9.936-6.955c-0.221,0.11-0.442,0.221-0.662,0.331
			c0,0.331,0,0.662,0,0.994c8.754,10.037,15.303,19.788,27.821,26.165c5.74,1.987,11.482,3.975,17.223,5.962
			c36.968,8.756,68.021-16.831,79.158-38.751c4.697-9.245,5.91-19.035,7.949-31.464c-0.331-4.195-0.662-8.391-0.994-12.586
			c-2.11-12.233-3.554-21.935-7.618-31.796c-2.76-5.409-5.52-10.82-8.28-16.229c-0.442,0-0.883,0-1.325,0
			c2.205,16.296,11.139,33.479,7.618,55.642C625.056,414.113,623.337,423.515,619.521,432.233z"/>
		<path style="fill:#F9F2E5;" d="M373.105,236.822c-6.313-34.559-28.654-55.154-70.215-54.649
			c-4.195,0.993-8.391,1.987-12.586,2.981c-11.641,4.719-22.082,15.178-27.159,26.496c0,0.331,0,0.662,0,0.994
			c3.43-0.839,5.488-3.669,8.28-5.299c7.907-4.617,23.064-8.593,35.77-5.63c7.54,1.758,11.869,6.049,17.885,8.611
			c0.367,1.422-1.662,3.239-2.318,5.63c-0.442,8.721-0.883,17.444-1.325,26.165c2.733,15.597,4.051,27.766,9.274,39.745
			c5.583,12.805,16.458,27.303,26.496,36.101c4.863,4.262,14.555,5.611,16.229,11.923c0.442,0,0.883,0,1.325,0
			c-2.929-13.592-5.51-33.592-3.312-47.031C373.781,268.601,375.873,251.976,373.105,236.822z"/>
		<path style="fill:#F9F2E5;" d="M581.102,938.314c-2.981,2.318-5.962,4.637-8.943,6.955c0,0.11,0,0.221,0,0.331
			c5.487,0.684,13.302-4.672,17.223-7.287c12.945-8.633,29.341-26.496,22.191-50.343c-5.307-17.7-21.508-30.305-44.381-30.471
			c-5.078,0.883-10.157,1.767-15.235,2.65c-15.288,4.784-25.342,14.395-31.133,28.815c-3.325,8.279-2.748,23.266,3.974,27.159
			c0.221-0.11,0.442-0.221,0.662-0.331c1.625-8.918,2.005-18.254,5.962-24.84c8.785-14.622,36.526-27.882,54.98-13.248
			c3.133,2.485,5.161,6.405,7.286,9.936C604.604,905.779,593.268,928.553,581.102,938.314z"/>
		<path style="fill:#F9F2E5;" d="M1901.947,227.217c-2.472-1.141-6.559-0.091-9.936-0.662c-5.74-1.104-11.482-2.208-17.223-3.312
			c-24.449-7.981-43.434-29.085-43.057-60.61c-0.331-0.331-0.662-0.662-0.994-0.994c-10.58,0.802-24.196,2.897-35.108,0.331
			c-27.945-6.572-59.737-34.262-43.719-71.54c2.757-6.415,7.376-11.55,11.923-16.229c0-0.442,0-0.883,0-1.325
			c-4.636-2.097-9.274-4.196-13.911-6.293c-12.825-8.108-26.803-26.547-22.853-50.674c1.435-5.52,2.871-11.041,4.306-16.56
			c-35.987,0-71.985,0-107.973,0c3.447,3.848,11.898,5.129,16.891,7.286c11.111,4.801,21.664,11.49,31.133,18.216
			c33.025,23.459,55.597,56.62,64.585,104.33c1.205,6.399,2.685,15.949,1.987,23.516c-0.838,9.089-3.041,17.888-3.312,26.165
			c4.084,1.987,8.17,3.975,12.255,5.962c6.403,3.864,12.807,7.729,19.21,11.592c34.735,24.667,60.501,63.785,59.617,123.871
			c0.442,0,0.883,0,1.325,0c7.693-26.036,33.181-52.782,70.215-46.369c6.334,1.097,12.322,2.657,17.554,4.968
			c3.204,1.415,5.495,4.172,9.605,4.637c0-7.948,0-15.899,0-23.847C1910.257,256.73,1904.497,242.334,1901.947,227.217z"/>
		<path style="fill:#F9F2E5;" d="M1791.987,1071.459c8.196,2.277,15.457-1.871,9.274-10.267c-5.772-1.435-9.158,0.943-12.255,3.974
			c-0.11,0-0.221,0-0.331,0c-3.352-3.635-5.999-7.882-10.93-9.936c-18.346-7.642-36.069,11.866-58.623,7.949
			c-16.947-2.944-29.523-10.869-38.089-22.191c-7.58-10.02-13.63-20.622-16.229-35.77c-5.076-29.578,14.066-53.712,6.293-81.476
			c-4.048-14.46-18.867-12.142-30.14-18.879c-18.592-11.111-40.885-46.812-28.815-77.502c5.63-14.316,18.744-25.934,33.783-30.802
			c23.501-7.607,41.413,6.314,44.713,24.84c1.989,11.168-5.637,21.016-11.261,25.172c-2.524,1.864-6.145,2.37-7.286,5.63
			c20.764,3.465,33.748-21.899,27.821-41.069c-7.984-25.827-42.333-37.41-69.222-21.528c-12.113,7.154-23.202,17.894-28.815,31.464
			c-18.875,45.633,18.05,95.984,56.967,101.018c3.134,6.86-0.233,36.791-1.656,44.05c-5.873,29.95-7.248,60.17,8.28,80.814
			c13.995,18.606,40.817,34.713,76.839,27.49c8.233-1.651,15.062-5.417,22.522-6.955c6.272-1.294,14.331,8.274,14.904,12.917
			c5.188,0,10.378,0,15.567,0c-1.104-2.87-2.208-5.741-3.312-8.611C1791.987,1071.68,1791.987,1071.569,1791.987,1071.459z"/>
		<path style="fill:#F9F2E5;" d="M1876.775,506.754c-75.82,2.011-124.127-43.216-139.106-103.005
			c-3.056-12.198-4.913-31.158-2.318-45.706c1.416-7.939,4.575-17.465,2.981-27.49c-4.444-27.942-13.05-45.521-31.464-58.954
			c-15.541-11.337-43.057-21.041-70.216-14.242c-10.739,2.689-18.904,8.321-27.821,11.923c-4.857,1.325-9.716,2.65-14.573,3.974
			c-9.848,3.882-19.265,11.73-23.516,21.197c-3.611,8.042-3.117,17.31-2.981,28.152c-3.804,1.818-8.92,1.199-13.911,1.987
			c-24.363,3.85-51.723-0.896-70.215-6.624c-52.896-16.384-85.353-52.379-101.68-105.323c-5.058-16.404-10.357-41.617-6.624-64.254
			c10.836-65.705,42.15-108.348,93.4-133.144c-2.097,4.305-4.196,8.612-6.293,12.917c-0.442,3.753-0.883,7.508-1.325,11.261
			c0.11,0.331,0.221,0.662,0.331,0.994c5.238-1.454,14.35-12.89,19.21-16.56c12.444-9.397,27.798-18.732,44.381-23.516
			c0.221-0.331,0.442-0.662,0.662-0.994c-163.93,0-327.909,0-491.839,0c-0.263,35.493-30.245,67.229-53.324,80.814
			c-3.719,2.189-29.924,10.65-30.802,12.255c4.636,4.636,9.274,9.274,13.911,13.911c11.951,15.832,21.127,34.199,26.165,56.967
			c5.376,24.296,0.108,52.837-6.955,70.878c-20.829,53.201-81.132,105.428-159.972,80.814
			c-43.297-13.517-72.977-41.942-82.47-89.425c-2.481-12.409-1.429-29.118,1.325-40.738c0.681-2.874,4.656-11.235,2.981-13.911
			c-9.052-4.526-18.107-9.053-27.159-13.579c-15.679-9.769-29.417-22.272-40.407-36.764c-5.188,1.214-10.378,2.429-15.567,3.643
			c-10.363,2.243-26.148,1.864-36.764-0.331c-36.838-7.617-62.445-26.208-77.502-55.642c-5.637-11.019-11.351-28.857-7.286-46.369
			c1.951-8.405,5.277-15.318,8.28-22.522c-151.235,0-302.516,0-453.751,0c0,0.11,0,0.221,0,0.331
			c6.39,8.303,17.204,13.268,23.847,21.528c16.393,20.385,29.952,41.514,37.426,71.209c6.184,24.571-0.494,48.857-7.618,66.903
			c-1.921,4.868-6.902,15.292-0.662,18.216c0.11,0.221,0.221,0.442,0.331,0.662c-3.786-0.239-5.682-1.906-8.28-3.312
			c-0.11,0.221-0.221,0.442-0.331,0.662c3.276,4.063,10.389,5.794,14.904,8.611c10.156,7.065,20.315,14.132,30.471,21.197
			c4.185,3.21,9.709,10.861,15.235,11.923c3.312-9.052,6.624-18.107,9.936-27.159c7.796-17.832,21.691-35.236,36.433-46.369
			c13.547-10.231,28.727-17.524,47.693-22.522c22.265-5.867,50.901-2.093,69.222,4.306c44.99,15.712,72.429,46.494,82.139,97.705
			c6.415,33.831-8.758,64.215-1.325,96.712c2.884,12.608,7.49,21.933,14.242,30.471c3.422,3.753,6.845,7.508,10.267,11.261
			c5.162,8.715,5.715,21.514,9.605,31.133c6.873,16.996,17.65,30.022,32.789,38.751c41.427,23.887,102.074-7.831,80.483-58.292
			c-5.494-12.841-20.009-25.812-40.076-21.528c-5.396,1.152-10.315,2.739-13.248,6.293c-6.96,8.432-6.146,23.329,3.974,27.821
			c0.552,0.11,1.104,0.221,1.656,0.331c-0.724-4.283-5.089-5.84-3.643-12.586c2.059-9.609,16.831-15.168,27.159-8.943
			c17.187,10.36,21.117,39.747,3.974,53.324c-24.268,19.22-55.463,5.504-69.222-13.911c-5.791-8.171-9.723-19.27-11.923-30.802
			c-1.902-9.967,1.671-20.947,4.637-27.821c1.449-3.359,4.376-5.871,4.637-10.267c-5.107-1.107-18.197,5.937-22.191,8.28
			c-5.393-4.281-17.452-43.417-11.261-53.324c4.119-6.591,26.981-18.709,35.439-22.191c9.368-3.857,19.393-6.354,30.14-8.611
			c20.255-4.254,46.199-0.943,62.929,3.643c47.919,13.136,81.069,43.71,98.368,87.438c5.428,13.721,12.862,41.638,9.274,63.26
			c-2.714,16.356-5.298,30.33-10.93,43.388c-21.508,49.87-86.802,99.192-164.94,77.502c-15.46-4.291-30.648-10.079-43.388-17.554
			c-25.977-15.241-49.528-35.432-67.235-58.954c-5.409-7.948-10.82-15.899-16.229-23.847c-2.321-3.831-3.209-7.894-6.624-10.599
			c-9.845,3.208-20.004,5.342-31.133,7.286c-11.047,1.93-27.927,1.507-38.42-0.331c-58.33-10.219-87.84-33.767-112.941-76.84
			c-10.395-17.836-12.902-40.791-21.528-60.942c-5.958-13.919-15.999-24.704-27.49-33.12c-5.87-4.299-13.355-8.229-20.866-10.599
			c-47.415-14.961-84.396,20.342-94.725,52.993c-2.586,8.174-2.523,17.942-3.643,27.821c-11.446,6.393-30.532,8.637-46.369,7.286
			c0,81.137,0,162.299,0,243.436c9.138,2.139,17.575,11.614,23.516,17.554c13.656,13.656,22.981,30.029,28.484,51.999
			c9.134,36.469-8.622,76.54-27.49,91.744c-6.648,5.357-14.62,15.423-24.509,16.891c0,79.702,0,159.428,0,239.13
			c7.6,2.164,15.929,13.289,19.872,19.541c1.766,3.091,3.533,6.183,5.299,9.274c7.175-0.221,14.353-0.442,21.528-0.662
			c26.531,0.817,49.249,2.19,60.942,20.535c3.297,5.172,7.48,12.432,5.63,22.522c-1.104,3.753-2.208,7.508-3.312,11.261
			c8.39,0,16.782,0,25.172,0c-0.05-14.522,6.766-26.03,12.917-34.776c17.195-24.45,58.374-50.32,104.661-39.413
			c13.513,3.184,25.971,7.23,37.095,12.917c6.198,3.169,13.017,9.263,20.535,10.267c0.221-0.11,0.442-0.221,0.662-0.331
			c-0.11-4.968-0.221-9.937-0.331-14.904c-1.132-7.384,0.849-17.495,2.65-24.178c8.311-30.846,24.541-51.682,47.694-67.566
			c7.286-4.084,14.574-8.17,21.859-12.255c1.987-11.812,3.975-23.627,5.962-35.439c7.287-43.975-21.74-80.481-45.706-95.056
			c-32.928-20.026-78.374-15.611-99.693,11.923c-24.284,31.364-15.895,74.79,17.554,89.425c7.92,3.465,19.984,6.711,31.796,4.306
			c6.036-1.229,11.406-3.425,15.898-6.293c17.605-11.238,24.015-44.962,3.312-57.961c-16.512-10.367-46.811-3.591-36.101,19.872
			c0.662,0.331,1.325,0.662,1.987,0.994c1.836-2.042,0.801-7.749,2.65-10.267c6.803-9.268,23.074-6.507,29.477,1.987
			c12.982,17.222-3.283,38.7-18.879,41.732c-28.057,5.453-54.116-22.768-48.025-52.33c3.142-15.249,10.768-27.11,21.859-34.445
			c16.903-11.179,42.539-10.473,61.935-2.318c39.543,16.624,64.923,71.053,33.452,114.266
			c-18.119,24.879-60.977,42.699-103.998,29.808c-35.287-10.573-58.238-32.359-71.209-65.247
			c-4.122-10.45-8.803-27.428-5.962-43.719c8.449-48.448,34.543-76.965,76.508-91.744c16.471-5.801,44.625-9.246,65.579-4.306
			c13.371,3.153,26.011,6.943,37.095,12.586c45.066,22.942,73.767,62.724,87.438,117.247c3.506,13.982,2.804,28.839,4.637,45.375
			c4.383,2.457,11.037,2.524,16.229,3.974c11.064,3.089,24.383,7.937,32.458,14.573c0.442,0,0.883,0,1.325,0
			c0.11-0.552,0.221-1.104,0.331-1.656c-3.186-4.917-4.036-9.473-6.624-15.567c-7.135-16.797-15.151-33.736-22.522-51.006
			c-9.249-21.671-25.062-39.776-31.133-64.585c3.572-4.586,12.014-6.036,18.216-7.949c38.286-11.807,63.439,10.994,81.808,28.815
			c5.74-1.877,11.482-3.754,17.223-5.63c12.712-3.273,34.224-3.781,47.693-0.662c47.321,10.955,92.644,56.326,75.515,118.24
			c-2.405,8.692-5.403,17.331-9.605,24.509c-10.102,17.255-24.052,30.725-43.719,38.42c-10.395,4.067-21.746,5.672-31.464,9.936
			c-9.748,4.277-18.79,10.603-27.159,16.56c-2.76,2.208-5.52,4.416-8.28,6.624c-0.331,0.331-0.662,0.662-0.994,0.994
			c-1.992-3.862-11.663-25.473-14.242-26.496c-0.11,0.221-0.221,0.442-0.331,0.662c2.46,6.676,2.172,20.733,0.662,28.484
			c-4.257,21.864-13.608,49.152-28.152,60.279c0,0.331,0,0.662,0,0.994c165.807,0.11,331.663,0.221,497.47,0.331
			c-2.34-17.376,3.614-32.3,8.611-43.719c14.76-33.727,43.518-51.304,84.457-59.286c9.364-1.826,22.16-2.044,31.796,0
			c17.714,3.757,33.211,8.038,46.037,16.56c5.63,4.416,11.262,8.833,16.891,13.248c2.67,0.746,15.007-5.714,18.547-6.955
			c11.806-4.137,38.807-9.57,56.305-6.624c9.122,1.536,18.2,1.961,26.496,4.306c33.551,9.484,60.5,27.497,79.489,51.668
			c5.754,7.324,17.719,20.299,19.21,30.802c85.111,0,170.248,0,255.359,0c-1.407-7.742-15.607-18.055-17.885-27.49
			c-1.315-5.446,2.516-13.748,3.643-18.216c3.744-14.838,13.649-42.655,6.624-59.948c-3.176-7.819-15.458-22.85-21.859-27.821
			c-4.471-3.472-9.343-4.085-10.599,2.981c-15.288-9.35-24.159-26.468-34.114-41.401c-7.849-11.774-19.85-25.247-20.535-43.719
			c5.389-5.038,8.653-10.514,3.643-19.541c-1.158-2.087-2.881-3.125-2.981-6.624c-0.34-11.932,1.535-24.153,4.968-33.12
			c14.667-38.316,39.959-62.296,83.795-71.54c12.905-2.721,32.074-2.027,44.381,1.325c9.734,2.651,18.886,5.157,26.165,10.267
			c-0.874,8.222-5.493,17.961-2.65,27.159c3.351,10.841,14.545,16.481,18.879,27.49c2.642,6.711,3.312,14.465,3.312,23.847
			c-0.001,29.611-13.24,45.849-36.101,52.662c-10.21,3.042-25.484,4.132-38.089,1.656c-6.072-1.104-12.145-2.208-18.216-3.312
			c-0.221,0-0.442,0-0.662,0c1.472,4.571,9.849,7.443,14.242,9.274c22.424,9.343,53.549,4.259,69.553-8.28
			c22.098-17.313,33.318-52.574,18.547-85.12c-5.926-13.058-22.582-16.023-18.547-37.095c0.759-3.965,0.715-7.282,2.981-9.605
			c11.308-0.544,26.812,12.87,32.458,19.872c23.847,29.571,33.863,62.614,15.235,104.661c-7.51,16.953-22.453,26.478-28.152,45.375
			c-5.3,17.572-2.05,41.35,3.643,55.642c6.717,16.862,18.325,32.226,32.789,41.401c7.864,4.988,17.138,7.922,24.178,13.579
			c9.797,7.872,17.446,25.578,25.172,36.101c5.078,6.513,10.157,13.028,15.235,19.541c4.857,0,9.716,0,14.573,0
			c0-0.331,0-0.662,0-0.994c-10.261-15.625-27.78-38.119-31.796-58.623c-2.741-13.993,4.13-24.441,9.274-31.133
			c16.75-21.793,43.131-26.471,79.489-22.522c0-157.638,0-315.323,0-472.961c-5.574,0.452-10.462,4.113-15.235,5.962
			C1900.191,503.632,1888.032,506.456,1876.775,506.754z M190.28,154.021c-4.81,15.411-15.567,29.06-33.452,26.165
			c-0.552,0.662-1.104,1.325-1.656,1.987c-0.11,0-0.221,0-0.331,0c0.891-1.996,2.153-2.505,2.65-4.968
			c-0.773,0.11-1.546,0.221-2.318,0.331c4.492-4.89,8.421-10.299,11.261-16.891c3.394-7.877,5.81-18.994,12.255-23.847
			c3.681-2.772,8.116-3.471,12.586-5.63c0.662,0,1.325,0,1.987,0C190.661,136.835,192.471,146.999,190.28,154.021z
			 M1543.252,632.612c-15.779,53.369-51.642,90.695-109.96,101.68c-11.394,2.146-25.726-0.026-36.764-0.331
			c-1.325,2.76-2.65,5.52-3.974,8.28c-5.564,8.926-13.808,16.813-23.847,21.197c-35.764,15.619-71.988-3.839-82.801-30.471
			c-7.792-19.192,2.715-39.441,17.223-44.05c13.158-4.18,28.729,2.078,31.796,12.255c1.798,5.965-0.598,12.883-1.987,17.223
			c0.11,0.221,0.221,0.442,0.331,0.662c1.95,0.898,3.334,0.156,5.299-0.331c10.828-2.686,15.933-15.854,9.274-27.159
			c-15.172-25.756-61.647-20.437-77.833,0.331c-4.024,5.164-13.019,22.221-10.93,32.458c1.668,8.171,4.458,19.93,2.65,30.802
			c-2.229,13.397-4.364,24.205-8.943,34.776c-16.738,38.649-58.091,64.611-102.674,75.846
			c-51.236,12.912-112.505-5.015-138.775-29.146c-0.442,0-0.883,0-1.325,0c-10.247,17.316-21.918,31.473-41.069,39.745
			c-53.298,23.019-106.351-8.484-127.845-42.394c-6.263-9.88-10.935-21.452-14.573-33.783
			c-16.679-56.525,21.952-104.431,57.63-119.565c8.083-3.429,17.107-5.699,26.496-7.618c4.305-0.331,8.612-0.662,12.917-0.994
			c0.221,0,0.442,0,0.662,0c-1.006-6.293-8.479-9.423-9.936-15.898c-0.571-2.539,1.012-5.708,1.656-7.287
			c5.428-13.301,22.69-20.041,41.069-14.242c14.053,4.434,24.316,14.604,35.108,22.522c18.405,13.503,36.894,27.729,59.617,36.764
			c24.493,9.738,53.435,10.19,75.184,22.853c4.053,2.36,8.749,3.751,11.923,6.955c10.954,11.058,18.927,25.327,19.872,46.369
			c0.339,7.55,6.455,17.303-1.987,20.866c0.221,0.442,0.442,0.883,0.662,1.325c11.722-5.902,30.505-30.609,26.828-51.337
			c-2.295-12.935-5.197-30.656-2.318-45.375c5.973-30.536,30.282-63.618,54.98-75.183c7.759-3.633,16.409-6.443,25.834-8.28
			c34.401-6.704,61.801,9.204,74.521,27.159c14.943,21.092,18.567,30.878,46.7,39.745c6.269,1.976,14.052,3.853,21.859,1.987
			c0.705-1.129,0.969-1.158,0.662-2.65c-17.2-4.21-34.528-11.489-44.05-23.516c-5.74-8.721-11.482-17.444-17.223-26.165
			c-11.684-14.813-46.185-33.846-76.177-28.815c-24.492,4.108-41.228,10.593-56.967,22.853
			c-10.583,8.244-16.848,19.262-25.172,29.808c-14.059,17.814-58.038,44.568-96.049,38.089c-7.065-1.214-14.132-2.429-21.197-3.643
			c-12.961-3.828-25.06-8.711-35.439-15.235c-39.394-24.764-70.818-88.078-51.006-152.685
			c10.959-35.736,30.328-60.794,58.954-78.827c15.23-9.594,42.587-23.129,70.215-18.216c29.837,5.306,48.429,18.696,57.63,44.713
			c2.89,8.173,3.852,22.815,0.994,32.127c-1.806,5.883-5.145,11.201-8.611,15.567c-10.832,13.64-43.023,18.553-54.98,2.65
			c-10.962-14.579,0.416-26.139,16.229-27.159c0.331-0.442,0.662-0.883,0.994-1.325c1.784-9.039-7.43-13.382-15.898-9.936
			c-7.969,3.243-13.156,11.052-15.567,19.872c-7.206,26.369,20.527,48.078,47.031,43.057c21.255-4.027,38.064-15.334,44.05-34.445
			c2.594-8.283,0.26-14.786,1.987-24.178c1.617-8.789,5.182-16.663,9.274-23.184c11.621-18.522,31.801-32.564,54.649-39.745
			c7.44-2.338,18.534-2.199,25.834-4.968c50.959-0.195,80.904,19.85,100.355,51.006c5.74,9.194,13.151,21.619,13.911,35.108
			c0.331,0.331,0.662,0.662,0.994,0.994c4.968-3.312,9.937-6.624,14.904-9.936c10.041-5.873,21.504-8.425,35.439-10.599
			c20.042-3.127,38.613,4.57,50.012,11.261C1530.486,515.678,1562.085,568.913,1543.252,632.612z"/>
		<path style="fill:#F9F2E5;" d="M1874.788-0.32c0-0.11,0-0.221,0-0.331c-4.195,0-8.391,0-12.586,0
			c-0.473,6.387-2.785,12.849-1.656,20.203c5.93,38.625,24.892,61.634,63.923,66.572c0-4.526,0-9.053,0-13.579
			C1894.126,72.476,1862.264,34.824,1874.788-0.32z"/>
		<path style="fill:#F9F2E5;" d="M1919.832,21.87c-0.221,0.442-0.442,0.883-0.662,1.325c0.442,0.442,0.883,0.883,1.325,1.325
			c1.325,0.11,2.65,0.221,3.974,0.331c0-1.104,0-2.208,0-3.312C1922.923,21.65,1921.377,21.76,1919.832,21.87z"/>
		<path style="fill:#F9F2E5;" d="M1061.349,752.84c-8.923,1.598-20.848,0.352-28.484-0.994
			c-34.629-6.102-55.887-22.911-95.387-22.522c-8.434,3.553-15.305,3.141-19.872,10.267c-2.215,3.457-1.083,7.654-1.987,12.917
			c-3.509,20.412,14.621,29.007,31.796,31.796c11.739,1.906,30.98-8.241,41.401-10.599c14.262-3.226,30.629,2.422,45.044-0.331
			c25.247-4.822,37.191-15.093,53.986-27.49c0-0.442,0-0.883,0-1.325c-2.87,1.325-5.741,2.65-8.611,3.974
			C1073.273,749.969,1067.31,751.405,1061.349,752.84z"/>
		<path style="fill:#F9F2E5;" d="M1894.329,1059.204c2.329,9.36,8.79,14.274,10.93,20.866c6.403,0.11,12.807,0.221,19.21,0.331
			c0-1.104,0-2.208,0-3.312c-3.691-0.976-6.159-4.629-8.28-7.286c-10.727-13.437-10.603-36.715,6.624-44.05
			c0.552-0.11,1.104-0.221,1.656-0.331c0-4.416,0-8.833,0-13.248C1906.781,1013.404,1888.672,1036.469,1894.329,1059.204z"/>
		<path style="fill:#F9F2E5;" d="M1802.254,1071.79c-2.208,2.539-4.416,5.079-6.624,7.618c0,0.11,0,0.221,0,0.331
			c2.585,1.453,9.142,0.759,12.917,0.662C1808.034,1076.468,1806.167,1072.361,1802.254,1071.79z"/>
		<path style="fill:#F9F2E5;" d="M1434.948,552.13c-4.948,2.029-10.28,1.839-14.573,4.306
			c-10.682,6.138-27.575,25.613-16.891,43.719c11.656,19.756,43.306,15.23,45.375-9.605c-0.11,0-0.221,0-0.331,0
			c-5.77,5.3-9.352,18.909-23.184,15.567c-17.72-4.282-8.659-31.66,0.994-38.089c16.298-10.855,37.41,4.837,44.713,13.911
			c2.76,3.429,6.28,8.912,10.599,10.599c0.11,0,0.221,0,0.331,0c2.247-5.161-3.422-14.553-5.63-18.216
			C1468.229,560.852,1456.992,551.764,1434.948,552.13z"/>
		<path style="fill:#F9F2E5;" d="M1049.757,572.333c-1.877-6.623-3.754-13.249-5.631-19.872c-0.773-3.974-1.546-7.949-2.318-11.923
			c-0.597-0.669,0.008-0.245-0.994-0.662c-2.818,10.753,2.167,30.759,4.637,38.751c10.532,34.084,36.243,56.76,82.139,49.018
			c0-0.442,0-0.883,0-1.325C1085.591,626.511,1061.68,602.494,1049.757,572.333z"/>
		<path style="fill:#F9F2E5;" d="M1459.788,611.746c-3.396,1.016-5.539,5.016-8.28,6.955c-6.489,4.592-14.712,7.763-23.847,9.605
			c-9.42,1.9-20.86,0.225-28.152-1.987c-33.399-10.133-38.216-30.197-54.649-56.305c-11.328-17.997-27.827-32.349-50.343-39.082
			c-8.872-2.653-21.769-4.047-32.458-2.318c-17.645,2.853-31.145,4.821-43.719,12.255c-17.245,10.196-28.86,23.737-50.343,30.471
			c-47.577,14.913-79.334-9.745-90.088-45.044c-2.561-8.406-2.494-20.189-2.65-30.802c-0.331-0.11-0.662-0.221-0.994-0.331
			c-1.379,18.204-0.645,36.136,4.968,50.012c4.707,11.637,10.1,20.712,19.21,27.821c6.322,4.933,13.196,9.207,21.86,11.923
			c9.292,2.913,23.557,3.503,34.114,1.325c16.371-3.378,29.428-7.736,41.401-15.235c8.169-6.182,16.34-12.366,24.509-18.547
			c14.906-9.342,43.723-18.502,68.228-11.261c51.789,15.303,48.145,66.216,89.425,90.088c26.674,15.425,70.728,11.559,83.464-13.911
			c-0.442-1.546-0.883-3.091-1.325-4.637C1460.009,612.409,1459.899,612.078,1459.788,611.746z"/>
	</g>
</g>
</svg>
